<?xml version="1.0" encoding="UTF-8" standalone="no"?>
<!DOCTYPE svg PUBLIC "-//W3C//DTD SVG 1.1//EN" "http://www.w3.org/Graphics/SVG/1.1/DTD/svg11.dtd">
<svg width="100%" height="100%" viewBox="0 0 1000 1000" version="1.1" xmlns="http://www.w3.org/2000/svg" xmlns:xlink="http://www.w3.org/1999/xlink" xml:space="preserve" xmlns:serif="http://www.serif.com/" style="fill-rule:evenodd;clip-rule:evenodd;stroke-linejoin:round;stroke-miterlimit:2;">
    <g transform="matrix(0,-1.753958,1.753958,0,-1105.338242,1376.547011)">
        <path d="M350.699,873.892C349.63,873.892 348.645,873.31 348.128,872.373C347.612,871.436 347.646,870.293 348.218,869.388C367.815,849.14 449.184,768.092 449.184,768.092C455.171,762.105 463.291,758.742 471.757,758.742L632.055,758.742C649.686,758.742 663.979,773.035 663.979,790.666L663.979,1049.984C663.979,1067.615 649.686,1081.908 632.055,1081.908L564.908,1081.908C580.383,1079.699 592.28,1066.392 592.28,1050.306L592.28,908.017C592.28,865.135 557.517,830.372 514.635,830.372L445.391,830.372C436.924,830.372 428.804,833.735 422.817,839.722C422.817,839.722 394.808,867.732 389.508,873.032C388.957,873.583 388.211,873.892 387.432,873.892C382.217,873.892 361.518,873.892 350.699,873.892Z" style="fill:rgb(44,0,255);"/>
    </g>
</svg>
